<svg width="942.59449" height="696.95179" xmlns="http://www.w3.org/2000/svg" data-name="Layer 1">

 <g>
  <title>Layer 1</title>
  <path id="svg_1" fill="#f0f0f0" d="m909.62002,627.99425c-2.82873,-22.74619 -16.92559,-45.1578 -38.61858,-52.56a105.60774,105.60774 0 0 1 -0.00523,72.50685c-3.33338,9.01667 -7.97975,18.69829 -4.84426,27.78572c1.95086,5.65446 6.72337,9.98061 12.05808,12.68564c5.335,2.705 11.25582,3.9943 17.1025,5.25778l1.15066,0.95166c9.28152,-20.95819 15.98555,-43.88145 13.15683,-66.62765z"/>
  <path id="svg_2" fill="#fff" d="m870.78618,575.86431a90.26621,90.26621 0 0 1 22.44,50.80179a38.87161,38.87161 0 0 1 -0.44216,12.17122a22.29463,22.29463 0 0 1 -5.545,10.34073c-2.49924,2.74591 -5.37367,5.26526 -7.1619,8.57089a13.6511,13.6511 0 0 0 -0.66692,11.14422c1.57882,4.52832 4.69058,8.21929 7.85906,11.723c3.518,3.8902 7.23371,7.87517 8.72912,13.03254c0.18119,0.62489 1.14021,0.3072 0.9593,-0.31674c-2.60176,-8.97295 -11.31212,-14.06976 -15.46607,-22.15158c-1.93831,-3.77112 -2.75189,-8.14923 -0.93476,-12.13c1.589,-3.481 4.55093,-6.08155 7.10549,-8.84a23.79012,23.79012 0 0 0 5.7985,-9.909a35.936,35.936 0 0 0 0.90848,-12.10932a87.57461,87.57461 0 0 0 -6.39592,-26.61311a91.86684,91.86684 0 0 0 -16.51884,-26.4723c-0.43194,-0.48368 -1.09757,0.27715 -0.66845,0.75767l0.00007,-0.00001z"/>
  <path id="svg_3" fill="#fff" d="m892.95429,620.55253a13.54281,13.54281 0 0 0 10.30875,-14.18663c-0.05147,-0.648 -1.06077,-0.5984 -1.00923,0.05041a12.54036,12.54036 0 0 1 -9.61626,13.17689c-0.63243,0.15036 -0.31207,1.10879 0.31674,0.95929l0,0.00004z"/>
  <path id="svg_4" fill="#fff" d="m888.68967,647.95266a26.10266,26.10266 0 0 1 -11.6564,-15.03322c-0.1834,-0.62422 -1.14247,-0.30673 -0.9593,0.31674a27.15071,27.15071 0 0 0 12.16134,15.61877c0.56019,0.33229 1.0115,-0.5718 0.45436,-0.90229z"/>
  <path id="svg_5" fill="#fff" d="m883.07979,592.83444a7.66589,7.66589 0 0 1 -7.26467,-0.36878c-0.55569,-0.33923 -1.00643,0.56527 -0.45435,0.90229a8.59023,8.59023 0 0 0 8.03576,0.42578a0.52209,0.52209 0 0 0 0.32128,-0.638a0.50768,0.50768 0 0 0 -0.638,-0.32127l-0.00002,-0.00002z"/>
  <path id="svg_6" fill="#f0f0f0" d="m804.87815,616.06169c0.341,0.22169 0.68192,0.44338 1.0233,0.6736a100.95473,100.95473 0 0 1 12.9083,10.07787c0.31557,0.28138 0.63114,0.57129 0.938,0.86115a106.42952,106.42952 0 0 1 23.1143,31.64061a103.357,103.357 0 0 1 5.66149,14.64793c2.08907,6.93177 3.80263,14.6138 7.9379,20.28371a17.73016,17.73016 0 0 0 1.38134,1.70524l37.37021,0c0.08493,-0.04262 0.17028,-0.07676 0.25562,-0.11938l1.49208,0.06822c-0.06,-0.26431 -0.12781,-0.53715 -0.18776,-0.80146c-0.03414,-0.15346 -0.0766,-0.30693 -0.11074,-0.46039c-0.0254,-0.10231 -0.05121,-0.20467 -0.06828,-0.29845c-0.00832,-0.03409 -0.01706,-0.06817 -0.02539,-0.09378c-0.01707,-0.09377 -0.04288,-0.17906 -0.06,-0.2643q-0.56265,-2.28926 -1.15944,-4.57855c0,-0.00853 0,-0.00853 -0.00833,-0.01707a151.97089,151.97089 0 0 0 -12.78923,-33.576c-0.17069,-0.31546 -0.341,-0.63946 -0.52873,-0.95492a98.62432,98.62432 0 0 0 -8.85879,-13.43724a87.192,87.192 0 0 0 -5.80636,-6.64186a72.50389,72.50389 0 0 0 -18.14347,-13.59072c-13.40331,-7.0767 -28.92066,-9.788 -43.24486,-5.46525c-0.36636,0.11087 -0.72481,0.22166 -1.09116,0.34104z"/>
  <path id="svg_7" fill="#fff" d="m804.96216,616.53599a90.26633,90.26633 0 0 1 48.5033,27.05193a38.87189,38.87189 0 0 1 6.97487,9.98426a22.29466,22.29466 0 0 1 1.79849,11.59494c-0.34227,3.69717 -1.12052,7.43934 -0.5581,11.15533a13.65108,13.65108 0 0 0 6.17709,9.29957c3.987,2.665 8.69375,3.73859 13.33307,4.62847c5.15109,0.988 10.51711,1.93268 14.81621,5.15021c0.5209,0.38985 1.09535,-0.4412 0.57524,-0.83046c-7.47969,-5.598 -17.50306,-4.42324 -25.68557,-8.37515c-3.81811,-1.844 -7.10363,-4.84988 -8.04947,-9.12237c-0.82709,-3.73611 -0.02786,-7.59575 0.351,-11.33622a23.79009,23.79009 0 0 0 -1.33611,-11.40288a35.93625,35.93625 0 0 0 -6.56528,-10.21558a87.57411,87.57411 0 0 0 -21.12966,-17.39829a91.86689,91.86689 0 0 0 -29.12752,-11.19117c-0.63609,-0.12614 -0.70949,0.8821 -0.07756,1.00741z"/>
  <path id="svg_8" fill="#fff" d="m849.56755,638.8703a13.54281,13.54281 0 0 0 -0.31035,-17.53378c-0.4312,-0.48636 -1.20724,0.16087 -0.77546,0.64788a12.54033,12.54033 0 0 1 0.25535,16.31066c-0.41443,0.50082 0.4184,1.07319 0.83046,0.57524z"/>
  <path id="svg_9" fill="#fff" d="m862.65924,663.31536a26.10265,26.10265 0 0 1 -18.358,-4.98522c-0.52226,-0.388 -1.09687,0.44294 -0.57524,0.83046a27.15069,27.15069 0 0 0 19.11373,5.14875c0.64734,-0.072 0.46336,-1.06555 -0.18047,-0.994l-0.00002,0.00001z"/>
  <path id="svg_10" fill="#fff" d="m824.99511,622.68408a7.66588,7.66588 0 0 1 -6.02246,4.07939c-0.64793,0.06371 -0.46325,1.05728 0.18047,0.994a8.59025,8.59025 0 0 0 6.67245,-4.49812a0.52209,0.52209 0 0 0 -0.12761,-0.70286a0.50767,0.50767 0 0 0 -0.70285,0.12761l0,-0.00002z"/>
  <path id="svg_11" fill="#f0f0f0" d="m139.98966,199.95038c-33.56665,17.70441 -60.01468,52.66209 -58.77037,90.59077a174.84809,174.84809 0 0 1 112.28358,-42.464c15.91535,-0.11976 33.62952,1.40419 45.8652,-8.77438c7.61347,-6.3332 11.51715,-16.2578 12.58113,-26.10339c1.06378,-9.8461 -0.40792,-19.76994 -1.87617,-29.56392l0.79968,-2.33931c-37.89156,-2.09635 -77.31639,0.94982 -110.88305,18.65423z"/>
  <path id="svg_12" fill="#fff" d="m82.01141,290.62256a149.4481,149.4481 0 0 1 65.5245,-64.50756a64.35743,64.35743 0 0 1 19.10675,-6.44479a36.91192,36.91192 0 0 1 19.2612,2.52939c5.71616,2.26173 11.30125,5.23718 17.46766,6.07a22.60125,22.60125 0 0 0 17.64805,-5.49516c6.08751,-5.09742 9.9804,-12.07819 13.55008,-19.0371c3.96345,-7.72653 7.95781,-15.81478 15.06831,-21.15153c0.86153,-0.64662 -0.19218,-1.94562 -1.05242,-1.3c-12.371,9.285 -15.16146,25.759 -25.24331,36.92567c-4.70438,5.21057 -11.00753,9.035 -18.23643,8.55289c-6.32136,-0.42157 -12.08338,-3.485 -17.85132,-5.825a39.38769,39.38769 0 0 0 -18.74115,-3.17492a59.497,59.497 0 0 0 -19.28409,5.68645a144.99114,144.99114 0 0 0 -37.46522,25.49349a152.0982,152.0982 0 0 0 -31.3175,41.08686c-0.496,0.95221 1.07211,1.53731 1.56485,0.59132l0.00004,-0.00001z"/>
  <path id="svg_13" fill="#fff" d="m138.22802,230.11722a22.422,22.422 0 0 0 -28.00718,-7.65358c-0.97323,0.45926 -0.30529,1.99318 0.66924,1.53332a20.76224,20.76224 0 0 1 26.038,7.17267c0.6033,0.89127 1.89983,-0.16624 1.3,-1.05241l-0.00006,0z"/>
  <path id="svg_14" fill="#fff" d="m183.15658,220.6711a43.21652,43.21652 0 0 1 -16.45176,26.85649c-0.85921,0.64965 0.19423,1.94885 1.05241,1.3a44.95171,44.95171 0 0 0 17.06274,-27.98142c0.18643,-1.06212 -1.478,-1.23141 -1.66339,-0.175l0,-0.00007z"/>
  <path id="svg_15" fill="#fff" d="m101.08931,261.64473a12.69191,12.69191 0 0 1 3.68434,11.46572c-0.1998,1.05924 1.46489,1.2274 1.66339,0.17506a14.22235,14.22235 0 0 0 -4.04775,-12.69319a0.86437,0.86437 0 0 0 -1.17619,-0.12378a0.84051,0.84051 0 0 0 -0.12379,1.17619z"/>
  <path id="svg_16" fill="#f0f0f0" d="m182.86586,369.13816c0.14357,-0.65786 0.28714,-1.31571 0.44368,-1.97921a167.14594,167.14594 0 0 1 8.04483,-25.89245c0.25088,-0.6535 0.515,-1.312 0.78411,-1.95691a176.20873,176.20873 0 0 1 35.45748,-54.3277a171.12039,171.12039 0 0 1 19.36675,-17.34737c9.51049,-7.29545 20.40274,-14.44886 26.76059,-24.17378a29.357,29.357 0 0 0 1.83149,-3.13794l-21.89025,-57.86967c-0.11575,-0.10655 -0.21861,-0.21871 -0.3346,-0.32591l-0.76836,-2.35052c-0.37418,0.24766 -0.75694,0.51257 -1.13112,0.76023c-0.21765,0.14275 -0.43043,0.29841 -0.64808,0.44117c-0.14355,0.09925 -0.28695,0.19918 -0.42216,0.28054c-0.04791,0.03286 -0.09557,0.06637 -0.13034,0.09426c-0.13522,0.08136 -0.25218,0.1713 -0.37418,0.24766q-3.21543,2.21226 -6.41094,4.47741c-0.01322,0.005 -0.01322,0.005 -0.02156,0.02289c-16.20281,11.54768 -31.58392,24.54949 -44.50263,39.47252c-0.38853,0.44911 -0.79052,0.90257 -1.169,1.37811a163.287,163.287 0 0 0 -15.619,21.58939a144.35516,144.35516 0 0 0 -6.88408,12.882a120.0397,120.0397 0 0 0 -10.418,36.05708c-3.10741,24.901 1.78355,50.5186 16.86822,70.1682c0.38615,0.50243 0.76768,0.9926 1.16715,1.49z"/>
  <path id="svg_17" fill="#fff" d="m183.55113,368.73023a149.44807,149.44807 0 0 1 13.47963,-90.95595a64.35713,64.35713 0 0 1 11.37548,-16.64938a36.91185,36.91185 0 0 1 16.90185,-9.577c5.92575,-1.63566 12.17656,-2.62254 17.60151,-5.67018a22.60123,22.60123 0 0 0 10.78252,-15.01292c1.79154,-7.73511 0.69688,-15.65265 -0.64267,-23.35814c-1.48732,-8.55548 -3.16772,-17.41838 -0.70348,-25.96048c0.29858,-1.035 -1.32484,-1.43776 -1.623,-0.40433c-4.28736,14.86178 3.40312,29.69536 2.07643,44.68129c-0.61906,6.99271 -3.34921,13.84123 -9.41134,17.8086c-5.30107,3.46929 -11.74608,4.49248 -17.76034,6.09677a39.38765,39.38765 0 0 0 -16.87528,8.74848a59.4966,59.4966 0 0 0 -11.97361,16.15062a144.99079,144.99079 0 0 0 -14.565,42.91177a152.09809,152.09809 0 0 0 -0.26814,51.66086c0.17727,1.0589 1.78158,0.582 1.60546,-0.47l-0.00002,-0.00001z"/>
  <path id="svg_18" fill="#fff" d="m192.00855,286.57382a22.422,22.422 0 0 0 -26.97015,10.7513c-0.50057,0.95264 0.95628,1.77525 1.45751,0.82134a20.76224,20.76224 0 0 1 25.1083,-9.94967c1.0183,0.3484 1.41681,-1.27657 0.40434,-1.623l0,0.00003z"/>
  <path id="svg_19" fill="#fff" d="m222.19424,251.98152a43.21657,43.21657 0 0 1 3.03366,31.3485c-0.29491,1.036 1.32842,1.43911 1.623,0.40434a44.95168,44.95168 0 0 0 -3.2231,-32.61454c-0.49062,-0.96029 -1.92148,-0.09337 -1.43352,0.8617l-0.00004,0z"/>
  <path id="svg_20" fill="#fff" d="m181.33711,334.10684a12.6919,12.6919 0 0 1 9.84489,6.93651c0.4782,0.966 1.90861,0.098 1.43352,-0.8617a14.22234,14.22234 0 0 0 -10.87408,-7.69775a0.86439,0.86439 0 0 0 -1.01365,0.60932a0.84052,0.84052 0 0 0 0.60932,1.01365l0,-0.00003z"/>
  <path id="svg_21" fill="#3f3d56" d="m512.28124,140.37912l-3.24576,0l0,-88.91658a51.46249,51.46249 0 0 0 -51.46244,-51.46254l-188.38186,0a51.46249,51.46249 0 0 0 -51.46259,51.46238l0,487.80339a51.4625,51.4625 0 0 0 51.46244,51.46254l188.38179,0a51.4625,51.4625 0 0 0 51.46264,-51.46234l0,-335.59452l3.24578,0l0,-63.29233z"/>
  <path id="svg_22" fill="#fff" d="m459.6494,13.38877l-24.59006,0a18.25879,18.25879 0 0 1 -16.9051,25.15462l-107.92157,0a18.25874,18.25874 0 0 1 -16.90513,-25.15465l-22.96718,0a38.43163,38.43163 0 0 0 -38.43165,38.43157l0,487.08759a38.43163,38.43163 0 0 0 38.4316,38.43165l189.28909,0a38.43163,38.43163 0 0 0 38.43165,-38.4316l0,0l0,-487.08761a38.43159,38.43159 0 0 0 -38.43165,-38.43157z"/>
  <path id="svg_23" fill="#3f3d56" d="m365.0603,299.16762a113.40455,113.40455 0 1 1 113.40454,-113.4043a113.53278,113.53278 0 0 1 -113.40454,113.4043zm0,-224.80909a111.40455,111.40455 0 1 0 111.40454,111.40479a111.53075,111.53075 0 0 0 -111.40454,-111.40479z"/>
  <path id="svg_24" fill="#e4e4e4" d="m351.98967,195.56035c-3.91359,-11.60023 -17.88326,-18.69859 -29.55989,-15.02029c-10.09768,3.18081 -16.96581,13.9475 -16.41754,24.39919c-3.37687,-12.76567 -16.369,-22.7491 -29.69392,-21.8136c-14.97494,1.05134 -27.61812,15.697 -26.47247,30.66467a17.40925,17.40925 0 0 0 -33.86923,-2.88038l0.00463,-0.27724c-2.38259,-1.33891 -5.60925,1.00735 -5.752,3.73694c-0.1427,2.72952 2.00013,5.16107 4.5127,6.23754c2.512,1.07646 5.33367,1.09 8.06694,1.08657q51.16261,-0.06585 102.32638,-0.13179c7.92308,-0.01019 16.65672,-0.32108 22.48146,-5.69295c5.3834,-4.96506 6.71392,-13.36954 4.37294,-20.30866z"/>
  <path id="svg_25" fill="#e4e4e4" d="m433.53106,248.52121a12.81037,12.81037 0 0 0 -15.39512,-7.82272c-5.259,1.65659 -8.836,7.264 -8.55043,12.70736c-1.75871,-6.6485 -8.52516,-11.848 -15.46492,-11.36076c-7.79911,0.54755 -14.38382,8.17515 -13.78716,15.97049a9.06693,9.06693 0 0 0 -17.63946,-1.50013l0.00241,-0.14439c-1.24088,-0.69731 -2.92136,0.52464 -2.99568,1.94624a3.60121,3.60121 0 0 0 2.35026,3.24858a10.56542,10.56542 0 0 0 4.20135,0.5659q26.64606,-0.03431 53.29271,-0.06864c4.12643,-0.0053 8.675,-0.16722 11.70859,-2.96495c2.80371,-2.58586 3.49663,-6.963 2.27745,-10.57698z"/>
  <circle id="svg_26" fill="#f58634" r="39.04574" cy="120.68685" cx="387.54126"/>
  <path id="svg_27" fill="#e4e4e4" d="m495.1574,134.03372c-3.91359,-11.60023 -17.88326,-18.69859 -29.55989,-15.02028c-10.09768,3.1808 -16.96581,13.9475 -16.41754,24.39918c-3.37687,-12.76566 -16.369,-22.7491 -29.69392,-21.8136c-14.97493,1.05134 -27.61812,15.697 -26.47247,30.66467a17.40925,17.40925 0 0 0 -33.86922,-2.88038l0.00462,-0.27724c-2.38259,-1.3389 -5.60925,1.00736 -5.752,3.737c-0.1427,2.72951 2.00013,5.16106 4.5127,6.23753c2.512,1.07647 5.33367,1.09 8.06694,1.08658q51.16261,-0.06587 102.32638,-0.1318c7.92308,-0.01018 16.65672,-0.32108 22.48146,-5.69294c5.3834,-4.96512 6.71393,-13.3696 4.37294,-20.30872z"/>
  <path id="svg_28" fill="#3f3d56" d="m418.89414,195.32181l7.52091,-6.01527c-5.84266,-0.6446 -8.24329,2.54185 -9.22578,5.064c-4.56451,-1.89536 -9.53353,0.58861 -9.53353,0.58861l15.04792,5.46293a11.38706,11.38706 0 0 0 -3.80952,-5.10027z"/>
  <path id="svg_29" fill="#3f3d56" d="m321.87138,254.48203l7.52091,-6.01527c-5.84266,-0.6446 -8.24329,2.54185 -9.22578,5.064c-4.56451,-1.89536 -9.53353,0.58861 -9.53353,0.58861l15.04792,5.46293a11.38706,11.38706 0 0 0 -3.80952,-5.10027z"/>
  <path id="svg_30" fill="#3f3d56" d="m305.30652,152.72646l7.52091,-6.01528c-5.84266,-0.6446 -8.24329,2.54185 -9.22578,5.064c-4.56451,-1.89536 -9.53354,0.58861 -9.53354,0.58861l15.04792,5.46293a11.38694,11.38694 0 0 0 -3.80951,-5.10026z"/>
  <ellipse id="svg_31" fill="#f0f0f0" ry="7.09923" rx="66.25945" cy="495.76264" cx="359.14436"/>
  <path id="svg_32" fill="#206a5d" d="m33.78269,381.45331l310.80081,0a33.784,33.784 0 0 1 11.26089,65.63549l0,23.32561l-21.3957,-21.39571l-300.666,0a33.7827,33.7827 0 0 1 0,-67.56539z"/>
  <path id="svg_33" fill="#fff" d="m48.42186,407.35338l273.63984,0a2.25218,2.25218 0 0 0 0,-4.50436l-273.63984,0a2.25218,2.25218 0 1 0 0,4.50436z"/>
  <path id="svg_34" fill="#fff" d="m48.42186,424.24472l273.63984,0a2.25218,2.25218 0 0 0 0,-4.50436l-273.63984,0a2.25218,2.25218 0 0 0 0,4.50436z"/>
  <path id="svg_35" fill="#ffb6b6" d="m723.69165,497.37015a11.75935,11.75935 0 0 0 3.23233,-17.7394l13.67208,-106.22785l-25.55039,1.07282l-5.405,104.08113a11.823,11.823 0 0 0 14.051,18.81326l-0.00002,0.00004z"/>
  <polygon id="svg_36" fill="#ffb6b6" points="842.598 373.388 845.881 427.702 823.714 486.246 813.122 470.587 823.217 413.635 820.417 377.199 842.598 373.388"/>
  <polygon id="svg_37" fill="#ffb6b6" points="810.859 540.853 813.579 680.473 801.645 682.321 775.848 539.419 810.859 540.853"/>
  <polygon id="svg_38" fill="#ffb6b6" points="733.457 547.599 752.137 685.991 764.213 685.991 767.836 540.824 733.457 547.599"/>
  <circle id="svg_39" fill="#ffb6b6" r="24.83603" cy="277.55208" cx="768.60577"/>
  <path id="svg_40" fill="#2f2e41" d="m789.50175,288.07551c0.84539,1.85983 2.17381,0.6968 3.72138,-0.57225c2.8873,-2.36767 4.56914,-6.0679 5.53511,-9.59428a35.99254,35.99254 0 0 0 0.44083,-17.99237a28.57678,28.57678 0 0 0 -9.35438,-15.2404a19.13239,19.13239 0 0 0 -3.46319,-2.31029c-4.16255,-2.11387 -9.07891,-2.20538 -13.69678,-1.51941a47.80757,47.80757 0 0 0 -17.157,6.15558a18.46006,18.46006 0 0 0 -6.11026,5.20058a8.20147,8.20147 0 0 0 -1.10718,7.67294a1.30641,1.30641 0 0 0 0.39436,0.56909a1.4956,1.4956 0 0 0 1.08257,0.12026a40.6553,40.6553 0 0 1 11.30293,0.03584a3.36277,3.36277 0 0 1 2.66524,1.34731a18.42739,18.42739 0 0 1 0.49535,2.23779c0.8479,2.27049 4.59855,1.71335 6.0099,3.6837c0.88684,1.2381 0.49484,2.997 1.11406,4.38843c0.99308,2.23152 4.0189,2.586 6.4311,2.20231s5.01929,-1.14388 7.1849,-0.01427c2.086,1.08809 2.99493,3.56128 3.52019,5.85463c0.50999,2.22669 0.09436,5.80257 0.99087,7.77481z"/>
  <polygon id="svg_41" fill="#2f2e41" points="813.894 462.975 824.316 487.343 813.894 520.13 813.894 554.067 773.982 554.307 773.1 512.573 767.73 554.307 727.091 554.307 719.569 470.657 730.36 450.861 813.894 462.975"/>
  <path id="svg_42" fill="#206a5d" d="m760.62862,310.51751l-2.93632,5.44085s-25.32665,4.93438 -38.12342,18.873l17.17527,35.06969l-15.90491,101.56585l93.78105,-6.25207l3.32757,-78.19824l14.11177,-54.69357s-24.46475,-16.77912 -35.01919,-15.01475l-3.69394,-6.79076l-32.71788,0z"/>
  <path id="svg_43" fill="#206a5d" d="m743.67445,338.48371l-24.10557,-3.65235s-6.59918,38.706 -6.5447,47.54351l29.09428,4.64169l1.55599,-48.53285z"/>
  <path id="svg_44" fill="#206a5d" d="m820.5401,334.79265l11.51956,-2.46966s4.44291,14.10247 11.77593,47.31159l-29.94135,10.4491l6.64586,-55.29103z"/>
  <path id="svg_45" fill="#2f2e41" d="m766.55524,695.07349l-43.3714,-0.00161l0,-0.54858a16.88228,16.88228 0 0 1 16.88136,-16.88109l0.00107,0l26.48977,0.00108l-0.0008,17.4302z"/>
  <path id="svg_46" fill="#2f2e41" d="m818.82871,688.43732l-42.8607,6.63617l-0.084,-0.54212a16.88227,16.88227 0 0 1 14.09893,-19.26582l0.001,-0.00016l26.17787,-4.05306l2.6669,17.22499z"/>
  <path id="svg_47" fill="#cacaca" d="m941.59448,696.9518l-381,0a1,1 0 0 1 0,-2l381,0a1,1 0 0 1 0,2z"/>
 </g>
</svg>